<svg width="33" height="26" viewBox="0 0 33 26" fill="none" xmlns="http://www.w3.org/2000/svg">
<rect x="4.75" y="0.75" width="22.5" height="20.5" rx="4.25" stroke="#E23744" stroke-width="1.5"/>
<path d="M0 24.5H33" stroke="#E23744" stroke-width="1.5"/>
<mask id="path-3-inside-1_744_1990" fill="white">
<path d="M20.9129 8.01798C20.5085 7.9283 20.1079 8.18278 20.018 8.58637C19.9282 8.98993 20.1831 9.38989 20.5875 9.47953L22.8708 9.98599L22.3481 12.5946C22.2668 13 22.5303 13.3944 22.9364 13.4754C23.3426 13.5566 23.7377 13.2936 23.819 12.8882L24.4856 9.56097C24.5656 9.16171 24.3112 8.77174 23.9129 8.68342L20.9129 8.01798Z"/>
</mask>
<path d="M20.9129 8.01798C20.5085 7.9283 20.1079 8.18278 20.018 8.58637C19.9282 8.98993 20.1831 9.38989 20.5875 9.47953L22.8708 9.98599L22.3481 12.5946C22.2668 13 22.5303 13.3944 22.9364 13.4754C23.3426 13.5566 23.7377 13.2936 23.819 12.8882L24.4856 9.56097C24.5656 9.16171 24.3112 8.77174 23.9129 8.68342L20.9129 8.01798Z" fill="black" stroke="#E23744" stroke-width="3" mask="url(#path-3-inside-1_744_1990)"/>
<mask id="path-4-inside-2_744_1990" fill="white">
<path d="M9.35075 9.29647C9.10274 8.96539 8.63275 8.89761 8.30099 9.14515C7.96923 9.39269 7.90133 9.86183 8.14934 10.1929C9.65817 12.2076 12.5312 13.4878 15.7256 13.4878C18.2895 13.4878 20.6284 12.6661 22.2335 11.3152C22.5502 11.0487 22.5905 10.5764 22.3235 10.2603C22.0565 9.94427 21.5833 9.90405 21.2666 10.1706C19.9687 11.2629 17.9867 11.9906 15.7256 11.9906C12.885 11.9906 10.5119 10.8469 9.35075 9.29647Z"/>
</mask>
<path d="M9.35075 9.29647C9.10274 8.96539 8.63275 8.89761 8.30099 9.14515C7.96923 9.39269 7.90133 9.86183 8.14934 10.1929C9.65817 12.2076 12.5312 13.4878 15.7256 13.4878C18.2895 13.4878 20.6284 12.6661 22.2335 11.3152C22.5502 11.0487 22.5905 10.5764 22.3235 10.2603C22.0565 9.94427 21.5833 9.90405 21.2666 10.1706C19.9687 11.2629 17.9867 11.9906 15.7256 11.9906C12.885 11.9906 10.5119 10.8469 9.35075 9.29647Z" fill="black" stroke="#E23744" stroke-width="3" mask="url(#path-4-inside-2_744_1990)"/>
</svg>
