<svg width="33" height="25" viewBox="0 0 33 25" fill="none" xmlns="http://www.w3.org/2000/svg">
<rect x="4.5" y="0.5" width="23" height="21" rx="4.5" fill="#E23744" stroke="#E23744"/>
<path d="M0 24.5H33" stroke="#E23744"/>
<path d="M19.6957 8.08122L19.6958 8.08123L21.9791 8.5877L22.4573 8.69377L22.3611 9.17407L21.8384 11.7826L21.8383 11.7827C21.8115 11.9164 21.8983 12.0478 22.0343 12.0749L22.0344 12.075C22.1705 12.1022 22.3018 12.0139 22.3287 11.8798C22.3288 11.8798 22.3288 11.8798 22.3288 11.8797L22.9953 8.5526L22.9953 8.55259C23.0217 8.42085 22.9379 8.29096 22.8047 8.26141L22.8046 8.2614L19.8046 7.59597C19.8046 7.59597 19.8046 7.59597 19.8046 7.59596C19.6689 7.56588 19.5358 7.6514 19.5061 7.78482L19.6957 8.08122ZM19.6957 8.08122C19.5605 8.05124 19.4765 7.9181 19.506 7.78493L19.6957 8.08122Z" fill="black" stroke="white"/>
<path d="M7.54955 8.98303L7.54952 8.98299C7.46746 8.87345 7.48962 8.71809 7.6 8.63574C7.71092 8.55297 7.86801 8.57586 7.95055 8.68604C9.22757 10.3912 11.7671 11.5804 14.7256 11.5804C17.0874 11.5804 19.1882 10.8215 20.5885 9.64296C20.6943 9.55395 20.8525 9.56754 20.9415 9.67276C21.03 9.77752 21.0168 9.93393 20.9115 10.0225L20.9115 10.0225C19.4089 11.2872 17.1888 12.0776 14.7256 12.0776C11.6485 12.0776 8.94223 10.8426 7.54955 8.98303Z" fill="black" stroke="white"/>
</svg>
