<svg width="24" height="25" viewBox="0 0 24 25" fill="none" xmlns="http://www.w3.org/2000/svg">
<path d="M20.4 2.70015H18V1.47507C18 1.15016 17.8736 0.838562 17.6485 0.608816C17.4235 0.37907 17.1183 0.25 16.8 0.25C16.4817 0.25 16.1765 0.37907 15.9515 0.608816C15.7264 0.838562 15.6 1.15016 15.6 1.47507V2.70015H8.4V1.47507C8.4 1.15016 8.27357 0.838562 8.04853 0.608816C7.82348 0.37907 7.51826 0.25 7.2 0.25C6.88174 0.25 6.57652 0.37907 6.35147 0.608816C6.12643 0.838562 6 1.15016 6 1.47507V2.70015H3.6C2.64522 2.70015 1.72955 3.08736 1.05442 3.7766C0.379285 4.46584 0 5.40064 0 6.37537V21.0763C0 22.051 0.379285 22.9858 1.05442 23.675C1.72955 24.3643 2.64522 24.7515 3.6 24.7515H20.4C21.3548 24.7515 22.2705 24.3643 22.9456 23.675C23.6207 22.9858 24 22.051 24 21.0763V6.37537C24 5.40064 23.6207 4.46584 22.9456 3.7766C22.2705 3.08736 21.3548 2.70015 20.4 2.70015ZM21.6 21.0763C21.6 21.4012 21.4736 21.7128 21.2485 21.9425C21.0235 22.1723 20.7183 22.3013 20.4 22.3013H3.6C3.28174 22.3013 2.97652 22.1723 2.75147 21.9425C2.52643 21.7128 2.4 21.4012 2.4 21.0763V12.5007H21.6V21.0763ZM21.6 10.0506H2.4V6.37537C2.4 6.05046 2.52643 5.73886 2.75147 5.50911C2.97652 5.27937 3.28174 5.1503 3.6 5.1503H6V6.37537C6 6.70028 6.12643 7.01188 6.35147 7.24163C6.57652 7.47138 6.88174 7.60045 7.2 7.60045C7.51826 7.60045 7.82348 7.47138 8.04853 7.24163C8.27357 7.01188 8.4 6.70028 8.4 6.37537V5.1503H15.6V6.37537C15.6 6.70028 15.7264 7.01188 15.9515 7.24163C16.1765 7.47138 16.4817 7.60045 16.8 7.60045C17.1183 7.60045 17.4235 7.47138 17.6485 7.24163C17.8736 7.01188 18 6.70028 18 6.37537V5.1503H20.4C20.7183 5.1503 21.0235 5.27937 21.2485 5.50911C21.4736 5.73886 21.6 6.05046 21.6 6.37537V10.0506Z" fill="#E23744"/>
</svg>
