<svg width="24" height="24" viewBox="0 0 24 24" fill="none" xmlns="http://www.w3.org/2000/svg">
<mask id="path-1-inside-1_172_1452" fill="white">
<path d="M19 7H15.5L14.5 6H9.5L8.5 7H5V9H19M6 22C6 22.5304 6.21071 23.0391 6.58579 23.4142C6.96086 23.7893 7.46957 24 8 24H16C16.5304 24 17.0391 23.7893 17.4142 23.4142C17.7893 23.0391 18 22.5304 18 22V10H6V22Z"/>
</mask>
<path d="M15.5 7L14.4393 8.06066L14.8787 8.5H15.5V7ZM14.5 6L15.5607 4.93934L15.1213 4.5H14.5V6ZM9.5 6V4.5H8.87868L8.43934 4.93934L9.5 6ZM8.5 7V8.5H9.12132L9.56066 8.06066L8.5 7ZM5 7V5.5H3.5V7H5ZM5 9H3.5V10.5H5V9ZM6 22L4.5 22L6 22ZM18 10H19.5V8.5H18V10ZM6 10V8.5H4.5V10H6ZM19 5.5H15.5V8.5H19V5.5ZM16.5607 5.93934L15.5607 4.93934L13.4393 7.06066L14.4393 8.06066L16.5607 5.93934ZM14.5 4.5H9.5V7.5H14.5V4.5ZM8.43934 4.93934L7.43934 5.93934L9.56066 8.06066L10.5607 7.06066L8.43934 4.93934ZM8.5 5.5H5V8.5H8.5V5.5ZM3.5 7V9H6.5V7H3.5ZM5 10.5H19V7.5H5V10.5ZM4.5 22C4.5 22.9283 4.86875 23.8185 5.52513 24.4749L7.64645 22.3536C7.55268 22.2598 7.5 22.1326 7.5 22L4.5 22ZM5.52513 24.4749C6.1815 25.1313 7.07174 25.5 8 25.5V22.5C7.86739 22.5 7.74022 22.4473 7.64645 22.3536L5.52513 24.4749ZM8 25.5H16V22.5H8V25.5ZM16 25.5C16.9283 25.5 17.8185 25.1312 18.4749 24.4749L16.3536 22.3536C16.2598 22.4473 16.1326 22.5 16 22.5V25.5ZM18.4749 24.4749C19.1312 23.8185 19.5 22.9283 19.5 22H16.5C16.5 22.1326 16.4473 22.2598 16.3536 22.3536L18.4749 24.4749ZM19.5 22V10H16.5V22H19.5ZM18 8.5H6V11.5H18V8.5ZM4.5 10V22H7.5V10H4.5Z" fill="#E23744" mask="url(#path-1-inside-1_172_1452)"/>
</svg>
