<svg width="23" height="23" viewBox="0 0 23 23" fill="none" xmlns="http://www.w3.org/2000/svg">
<path fill-rule="evenodd" clip-rule="evenodd" d="M10.3497 0.381836C10.3772 0.761785 10.3792 0.763762 10.759 0.791254L11.1407 0.818926V1.35107C11.1407 1.95437 11.1876 1.92212 10.1664 2.02166C8.76295 2.15859 6.79961 2.96826 5.51044 3.94163C3.28824 5.61964 1.91725 8.05287 1.60342 10.876L1.49411 11.8594H0.889815C-0.0204075 11.8594 -0.166992 12.1133 0.156804 13.1293C0.269347 13.4824 0.443506 13.7452 0.80799 14.1121C1.5278 14.8365 1.81243 14.913 3.81404 14.9188L5.43724 14.9236L4.97926 15.3291L4.52127 15.7345L2.26224 15.7258L0.00321468 15.7171V16.0774V16.4378L1.91186 16.4621L3.82051 16.4863L3.84422 19.3389L3.86793 22.1914H1.93557H0.00321468V22.5957V23H2.18581C3.76365 23 4.39831 22.9701 4.47618 22.8922C4.54022 22.8281 4.58396 22.5195 4.58396 22.1315V21.4785L9.50153 21.4532L14.4191 21.4277L14.8682 21.1891C15.4927 20.8573 20.3109 16.8547 20.5085 16.5036C20.6743 16.2088 20.6887 15.4107 20.5342 15.0713C20.4795 14.9512 20.5035 14.9141 20.6359 14.9141C21.4323 14.9141 22.5666 13.9968 22.8432 13.1293C23.167 12.1133 23.0204 11.8594 22.1102 11.8594H21.5059L21.3966 10.876C21.0827 8.05287 19.7118 5.61964 17.4896 3.94163C16.2004 2.96826 14.237 2.15859 12.8336 2.02166C11.8124 1.92212 11.8593 1.95437 11.8593 1.35107V0.818926L12.241 0.791254C12.6208 0.763762 12.6228 0.761785 12.6503 0.381836L12.678 0H11.5H10.322L10.3497 0.381836ZM9.91326 2.82837C7.3714 3.28972 5.15009 4.79101 3.72934 7.00781C2.93939 8.24038 2.34254 10.1024 2.33967 11.3428L2.3385 11.8594H11.5H20.6615L20.6603 11.3428C20.655 9.04197 19.151 6.1808 17.1402 4.64636C15.0415 3.04489 12.3923 2.37843 9.91326 2.82837ZM10.9611 3.47426C9.15286 3.60336 7.41388 4.31762 5.97642 5.52171L5.70733 5.74713L5.97642 6.01477L6.24561 6.28232L6.79539 5.85368C7.91498 4.98076 9.41504 4.38689 10.8221 4.25931L11.5 4.19786V3.80596C11.5 3.59043 11.4696 3.42116 11.4326 3.42979C11.3956 3.43841 11.1834 3.45845 10.9611 3.47426ZM4.81417 6.76182L4.46046 7.21355L4.72435 7.42469C4.86941 7.54077 5.00988 7.636 5.03647 7.63627C5.06306 7.63654 5.23892 7.45236 5.42727 7.22703C5.76257 6.8257 5.76625 6.81348 5.60439 6.63469C5.27431 6.26984 5.18844 6.28367 4.81417 6.76182ZM0.811582 12.7165C0.811582 12.7432 0.889994 12.9188 0.98592 13.1069C1.2137 13.5534 1.70914 13.9821 2.13398 14.1001C2.60436 14.2307 20.3956 14.2307 20.866 14.1001C21.2909 13.9821 21.7863 13.5534 22.0141 13.1069C22.11 12.9188 22.1884 12.7432 22.1884 12.7165C22.1884 12.6898 17.3786 12.668 11.5 12.668C5.62137 12.668 0.811582 12.6898 0.811582 12.7165ZM6.73386 15.0345C6.55773 15.0985 6.0031 15.4918 5.50119 15.9085L4.58864 16.666L4.5863 18.665L4.58396 20.6641L9.41172 20.6603C13.9426 20.6568 14.2588 20.6463 14.5535 20.4893C15.0336 20.2337 19.7342 16.3349 19.8452 16.1003C19.9973 15.7791 19.9621 15.5539 19.7224 15.3143C19.2872 14.8789 19.1389 14.9474 16.6004 16.7559L14.2675 18.418H11.848C9.15403 18.418 8.94511 18.3819 8.62814 17.8618C8.39704 17.4828 8.39704 17.0172 8.62814 16.6382C8.91897 16.161 9.23648 16.082 10.8649 16.082C12.227 16.082 12.3109 16.0719 12.4845 15.8854C12.7131 15.64 12.7162 15.4432 12.4961 15.1711L12.3244 14.959L9.68926 14.9385C7.7119 14.9231 6.97404 14.9471 6.73386 15.0345ZM13.3619 15.3857C13.4051 15.9618 13.1936 16.4024 12.7473 16.666C12.4841 16.8214 12.2312 16.8517 10.8713 16.8906L9.29944 16.9355V17.25V17.5645L11.6981 17.5884L14.0966 17.6122L15.8746 16.3428C16.8525 15.6445 17.6909 15.0374 17.7379 14.9937C17.7876 14.9473 16.8848 14.9141 15.5749 14.9141H13.3265L13.3619 15.3857ZM1.56004 19.2344C1.0999 19.3691 0.811582 19.7875 0.811582 20.3206C0.811582 20.7125 0.851103 20.8114 1.11167 21.072C1.49232 21.4528 1.81863 21.5368 2.28488 21.3743C2.93741 21.1468 3.24288 20.3856 2.9269 19.7745C2.68574 19.308 2.09967 19.0763 1.56004 19.2344ZM1.63791 20.0531C1.3963 20.2948 1.58438 20.6641 1.94914 20.6641C2.17224 20.6641 2.34074 20.4268 2.26799 20.2148C2.17548 19.9452 1.83354 19.8574 1.63791 20.0531Z" fill="#E23744"/>
</svg>
