<svg width="21" height="21" viewBox="0 0 21 21" fill="none" xmlns="http://www.w3.org/2000/svg">
<path d="M15.611 20.2199C15.3391 20.2197 15.0734 20.1383 14.8481 19.9861L10.2584 16.9099C10.2358 16.8943 10.2089 16.886 10.1815 16.886C10.154 16.886 10.1272 16.8943 10.1046 16.9099L5.51486 19.9861C5.28439 20.14 5.01255 20.2202 4.73546 20.2159C4.45836 20.2117 4.18911 20.1232 3.96347 19.9623C3.73782 19.8015 3.56646 19.5757 3.47213 19.3152C3.3778 19.0546 3.36497 18.7715 3.43535 18.5034L4.94269 13.1877C4.94981 13.161 4.94895 13.1328 4.9402 13.1065C4.93145 13.0803 4.91521 13.0572 4.89347 13.0401L0.549869 9.6255C0.321208 9.45515 0.151592 9.21752 0.0648044 8.94591C-0.0219833 8.6743 -0.0215907 8.38234 0.0659274 8.11097C0.153445 7.83959 0.3237 7.60241 0.552819 7.43269C0.781937 7.26296 1.05843 7.16919 1.34353 7.16453L6.88069 6.95535C6.90792 6.95347 6.93402 6.94376 6.95585 6.92739C6.97768 6.91101 6.99431 6.88868 7.00374 6.86307L8.91098 1.67659C9.00712 1.41366 9.18173 1.18662 9.41117 1.02622C9.64062 0.865812 9.91381 0.779785 10.1938 0.779785C10.4737 0.779785 10.7469 0.865812 10.9763 1.02622C11.2058 1.18662 11.3804 1.41366 11.4765 1.67659L13.3838 6.86307C13.3932 6.88868 13.4098 6.91101 13.4317 6.92739C13.4535 6.94376 13.4796 6.95347 13.5068 6.95535L19.044 7.16453C19.3291 7.16919 19.6056 7.26296 19.8347 7.43269C20.0638 7.60241 20.2341 7.83959 20.3216 8.11097C20.4091 8.38234 20.4095 8.6743 20.3227 8.94591C20.2359 9.21752 20.0663 9.45515 19.8377 9.6255L15.4941 13.0401C15.4717 13.0566 15.4549 13.0797 15.4461 13.1061C15.4373 13.1326 15.4369 13.1611 15.4448 13.1877L16.9522 18.5034C17.0051 18.7073 17.0103 18.9206 16.9675 19.1269C16.9247 19.3331 16.835 19.5268 16.7053 19.6927C16.5756 19.8587 16.4094 19.9926 16.2196 20.084C16.0299 20.1755 15.8216 20.222 15.611 20.2199ZM10.1845 15.6549C10.457 15.6632 10.7206 15.7532 10.9413 15.9133L15.531 18.9895C15.5542 19.0071 15.5826 19.0168 15.6118 19.017C15.641 19.0173 15.6695 19.008 15.6931 18.9907C15.7166 18.9734 15.7339 18.949 15.7424 18.921C15.7509 18.8931 15.7501 18.8631 15.7402 18.8356L14.2328 13.52C14.1586 13.2592 14.1641 12.9822 14.2485 12.7246C14.3329 12.467 14.4924 12.2405 14.7065 12.0742L19.0501 8.65957C19.0738 8.64293 19.0916 8.61912 19.1007 8.59166C19.1099 8.56419 19.11 8.53451 19.1011 8.50697C19.0921 8.47943 19.0746 8.45549 19.051 8.43866C19.0275 8.42183 18.9991 8.41301 18.9702 8.41347L13.433 8.20429C13.1619 8.19372 12.9 8.10264 12.6809 7.94266C12.4617 7.78268 12.2952 7.56105 12.2025 7.30604L10.2953 2.11956C10.2867 2.09203 10.2695 2.06796 10.2463 2.05086C10.223 2.03377 10.1949 2.02456 10.1661 2.02456C10.1372 2.02456 10.1091 2.03377 10.0859 2.05086C10.0626 2.06796 10.0455 2.09203 10.0369 2.11956L8.14809 7.29989C8.05541 7.5549 7.88887 7.77653 7.66972 7.93651C7.45057 8.09649 7.18873 8.18757 6.91761 8.19814L1.38044 8.40732C1.35149 8.40685 1.32315 8.41568 1.29959 8.43251C1.27603 8.44934 1.25848 8.47328 1.24953 8.50082C1.24059 8.52836 1.2407 8.55804 1.24987 8.58551C1.25904 8.61297 1.27677 8.63677 1.30046 8.65342L5.65021 12.0742C5.86366 12.241 6.02268 12.4675 6.10703 12.725C6.19139 12.9824 6.19728 13.2592 6.12395 13.52L4.62276 18.8356C4.6138 18.8623 4.61376 18.8911 4.62264 18.9177C4.63152 18.9444 4.64884 18.9674 4.67198 18.9833C4.69427 19.0024 4.72263 19.0128 4.75196 19.0128C4.78129 19.0128 4.80965 19.0024 4.83194 18.9833L9.42163 15.9071C9.64594 15.7583 9.90921 15.6791 10.1784 15.6795L10.1845 15.6549Z" fill="#E23744"/>
</svg>
